<svg id="Layer_5" enable-background="new 0 0 62 62" height="512" viewBox="0 0 62 62" width="512" xmlns="http://www.w3.org/2000/svg"><g><g><path d="m58 53v-34c0-2.757-2.243-5-5-5h-8.667l-.153 2.29c-.101 1.525-1.368 2.71-2.896 2.71h10.716c.552 0 1 .448 1 1v28c0 .552-.448 1-1 1h-42c-.552 0-1-.448-1-1v-28c0-.552.448-1 1-1h12.716c-1.528 0-2.795-1.185-2.897-2.71l-.152-2.29h-10.667c-2.757 0-5 2.243-5 5v34z" fill="#f0bc5e"/></g><g><path d="m32 5h10v8h-10z" fill="#f0bc5e"/></g><g><path d="m32 4h10v2h-10z"/><path d="m0 52v3c0 3.859 3.14 7 7 7h48c3.86 0 7-3.141 7-7v-3zm24 2h14v1c0 .552-.449 1-1 1h-12c-.551 0-1-.448-1-1zm36 1c0 2.757-2.243 5-5 5h-48c-2.757 0-5-2.243-5-5v-1h20v1c0 1.654 1.346 3 3 3h12c1.654 0 3-1.346 3-3v-1h20z"/><path d="m10 50h42c1.103 0 2-.897 2-2v-28c0-1.103-.897-2-2-2h-7.328c.279-.493.466-1.045.506-1.644l.813-12.192c.006-.086.009-.174.009-.261 0-2.152-1.751-3.903-3.903-3.903h-20.194c-2.152 0-3.903 1.751-3.903 3.903 0 .087.003.174.009.26l.813 12.193c.04.598.227 1.15.506 1.644h-9.328c-1.103 0-2 .897-2 2v28c0 1.103.897 2 2 2zm30-2h-17.999v-.228c0-1.777 1.192-3.359 2.901-3.847l2.32-.663c.193.581.504 1.119.95 1.566.755.756 1.76 1.172 2.828 1.172s2.073-.416 2.828-1.172c.446-.446.757-.984.95-1.565l2.32.663c1.71.487 2.902 2.069 2.902 3.846zm-9.586-24c.645 0 1.251-.251 1.707-.707l2.436-2.436c.741.368 1.405.836 1.982 1.391-.908 2.229-3.1 3.752-5.539 3.752-2.447 0-4.645-1.533-5.548-3.774.725-.695 1.584-1.258 2.548-1.644v1.004c0 1.331 1.083 2.414 2.414 2.414zm-.414 3.917v6.083h2v-6.083c2.477-.319 4.66-1.796 5.903-3.934.693 1.194 1.097 2.564 1.097 4.017v4c0 4.411-3.589 8-8 8s-8-3.589-8-8v-4c0-1.467.393-2.847 1.085-4.037 1.241 2.149 3.43 3.634 5.915 3.954zm3 13.882v.201c0 .534-.208 1.037-.585 1.414-.755.756-2.073.756-2.828 0-.378-.378-.585-.88-.585-1.414v-.201c.645.131 1.314.201 1.998.201.685 0 1.353-.07 2-.201zm19-21.799v28h-10v-.228c0-2.665-1.789-5.038-4.352-5.771l-2.648-.755v-.087c2.937-1.288 5.143-3.943 5.799-7.159h1.201c1.654 0 3-1.346 3-3v-2c0-1.654-1.346-3-3-3h-1.205c-.486-2.411-1.838-4.538-3.796-6h3.001 1.284zm-11 12v-4h1c.551 0 1 .449 1 1v2c0 .551-.449 1-1 1zm-19.097-30h20.193c1.05 0 1.904.854 1.904 1.903l-.817 12.32c-.066.997-.901 1.777-1.899 1.777h-1.284-5.414l-3.879 3.879c-.238.238-.707.045-.707-.293v-3.586h-4-3.284c-.999 0-1.833-.78-1.899-1.776l-.813-12.195-.004-.126c0-1.049.854-1.903 1.903-1.903zm-11.903 18h12.716 2.262c-1.935 1.449-3.287 3.573-3.773 6h-1.205c-1.654 0-3 1.346-3 3v2c0 1.654 1.346 3 3 3h1.202c.656 3.216 2.862 5.872 5.799 7.16v.086l-2.649.756c-2.562.732-4.352 3.105-4.352 5.77v.228h-10zm11 8v4h-1c-.551 0-1-.449-1-1v-2c0-.551.449-1 1-1z"/><path d="m24 7.325c0-.731.594-1.325 1.325-1.325h1.351c.73 0 1.324.594 1.324 1.325 0 .571-.364 1.076-.906 1.256l-2.094.698v2.721h2v-1.279l.727-.242c1.359-.454 2.273-1.721 2.273-3.154 0-1.833-1.492-3.325-3.325-3.325h-1.351c-1.832 0-3.324 1.492-3.324 3.325v.675h2z"/><circle cx="26" cy="15" r="1"/><path d="m32 8h10v2h-10z"/><path d="m32 12h10v2h-10z"/><circle cx="27" cy="30" r="1"/><circle cx="35" cy="30" r="1"/><path d="m26.293 35.707.586.586c1.1 1.101 2.564 1.707 4.121 1.707s3.021-.606 4.121-1.707l.586-.586-1.414-1.414-.586.586c-1.446 1.445-3.968 1.445-5.414 0l-.586-.586z"/><circle cx="55" cy="57" r="1"/><circle cx="51" cy="57" r="1"/></g></g></svg>